<?xml version="1.0" encoding="UTF-8"?>
<svg version="1.1" xmlns="http://www.w3.org/2000/svg" width="266" height="118">
<path d="M0 0 C2.85577218 1.23750128 4.90545097 0.5397365 7.875 -0.1875 C8.65875 -0.5175 9.4425 -0.8475 10.25 -1.1875 C21.07343435 -5.31071309 35.03829115 -3.63297539 45.58984375 0.5703125 C48.84957032 2.34226643 51.78418959 4.46466552 54.75 6.6875 C55.32210205 7.1103125 55.8942041 7.533125 56.48364258 7.96875 C59.84337457 10.58784461 61.70780498 12.69038089 62.875 16.8125 C63.535 16.8125 64.195 16.8125 64.875 16.8125 C69.4172711 24.28005249 72.2092261 31.23500755 73.875 39.8125 C74.2153125 41.483125 74.2153125 41.483125 74.5625 43.1875 C75.06747469 49.04520636 75.14271024 54.93862234 74.875 60.8125 C73.25395873 62.43354127 71.44975797 61.97826966 69.20800781 62.01782227 C67.70358879 62.04772499 67.70358879 62.04772499 66.16877747 62.07823181 C65.06636215 62.09495438 63.96394684 62.11167694 62.828125 62.12890625 C61.6858696 62.14977798 60.5436142 62.17064972 59.366745 62.19215393 C55.61956827 62.2586582 51.87232251 62.31733472 48.125 62.375 C46.22187546 62.40626984 46.22187546 62.40626984 44.28030396 62.43817139 C28.45838681 62.69786113 12.63667444 62.91174368 -3.1875 62.9375 C-3.90925415 62.9400882 -4.6310083 62.94267639 -5.37463379 62.94534302 C-7.42819064 62.95124064 -9.48159804 62.94963336 -11.53515625 62.9453125 C-12.65027588 62.94418457 -13.76539551 62.94305664 -14.91430664 62.94189453 C-21.32590109 62.74486635 -27.7245863 62.23919425 -34.125 61.8125 C-34.125 75.6725 -34.125 89.5325 -34.125 103.8125 C-38.31043291 104.85885823 -38.68084863 104.92730882 -42.1875 103.0625 C-42.85910156 102.71703125 -43.53070313 102.3715625 -44.22265625 102.015625 C-46.17286587 100.78222754 -47.63663835 99.57442345 -49.125 97.8125 C-49.125 97.1525 -49.125 96.4925 -49.125 95.8125 C-49.785 95.8125 -50.445 95.8125 -51.125 95.8125 C-58.20600187 85.53362632 -56.28444206 72.21792783 -56.04785156 60.23461914 C-56.01604722 58.4170659 -55.99482307 56.59929559 -55.984375 54.78149414 C-55.88901956 38.29543209 -52.65162427 26.17004603 -44.125 11.8125 C-43.465 11.8125 -42.805 11.8125 -42.125 11.8125 C-41.75375 10.884375 -41.75375 10.884375 -41.375 9.9375 C-39.91871361 7.46181313 -38.74687494 6.86124998 -36.125 5.8125 C-36.125 5.1525 -36.125 4.4925 -36.125 3.8125 C-25.1446942 -2.84685213 -12.10628163 -6.76527503 0 0 Z M-25.125 21.8125 C-25.455 22.8025 -25.785 23.7925 -26.125 24.8125 C-26.785 24.8125 -27.445 24.8125 -28.125 24.8125 C-29.13196568 26.91334209 -30.1303589 29.01829489 -31.125 31.125 C-31.681875 32.29675781 -32.23875 33.46851563 -32.8125 34.67578125 C-34.31800084 37.70704167 -34.31800084 37.70704167 -34.125 40.8125 C-5.745 40.8125 22.635 40.8125 51.875 40.8125 C51.04187441 35.81374645 50.22005694 33.09477788 47.875 28.8125 C47.215 28.8125 46.555 28.8125 45.875 28.8125 C45.875 28.1525 45.875 27.4925 45.875 26.8125 C45.215 26.8125 44.555 26.8125 43.875 26.8125 C43.875 26.1525 43.875 25.4925 43.875 24.8125 C43.215 24.8125 42.555 24.8125 41.875 24.8125 C41.875 24.1525 41.875 23.4925 41.875 22.8125 C35.23368941 17.98245593 27.85125738 17.1854816 19.875 17.8125 C19.215 18.1425 18.555 18.4725 17.875 18.8125 C18.019375 19.46476562 18.16375 20.11703125 18.3125 20.7890625 C18.498125 21.66304687 18.68375 22.53703125 18.875 23.4375 C19.060625 24.29601562 19.24625 25.15453125 19.4375 26.0390625 C19.875 28.8125 19.875 28.8125 19.875 34.8125 C13.605 34.8125 7.335 34.8125 0.875 34.8125 C-0.115 31.8425 -1.105 28.8725 -2.125 25.8125 C-4.97521993 21.68718168 -7.18951499 19.04637125 -12.125 17.8125 C-16.93252328 17.03290163 -21.22368043 19.08704544 -25.125 21.8125 Z " fill="#F5F6F7" transform="translate(125.125,6.1875)"/>
<path d="M0 0 C28.38 0 56.76 0 86 0 C86 3 86 3 84.390625 4.6484375 C83.68421875 5.21820313 82.9778125 5.78796875 82.25 6.375 C76.94989038 10.6739778 73.45529332 15.70922989 69.9375 21.5 C64.9997999 29.51229928 59.85515817 37.3851808 54.6875 45.25 C54.27601715 45.87651459 53.8645343 46.50302917 53.44058228 47.14852905 C51.79370048 49.65602144 50.14665366 52.16340512 48.49909973 54.67045593 C44.86035075 60.20867096 41.23749002 65.75711791 37.625 71.3125 C37.12057373 72.0869043 36.61614746 72.86130859 36.09643555 73.65917969 C35.62375244 74.3865332 35.15106934 75.11388672 34.6640625 75.86328125 C34.06779053 76.78040894 34.06779053 76.78040894 33.45947266 77.71606445 C31.27970904 81.12718667 29.1454894 84.56721696 27 88 C38.55 88.33 50.1 88.66 62 89 C66 99 66 99 66 101 C66.66 101 67.32 101 68 101 C69.5078125 102.75 69.5078125 102.75 71.125 105 C71.66382812 105.7425 72.20265625 106.485 72.7578125 107.25 C73.16773437 107.8275 73.57765625 108.405 74 109 C70.91206715 110.02931095 68.79300851 110.12677169 65.55737305 110.12939453 C64.44158371 110.13254669 63.32579437 110.13569885 62.17619324 110.13894653 C60.96691666 110.1369223 59.75764008 110.13489807 58.51171875 110.1328125 C57.26179642 110.13376923 56.01187408 110.13472595 54.72407532 110.13571167 C52.07016575 110.13639325 49.4163477 110.13504211 46.76245117 110.13037109 C44.0654886 110.12585019 41.36859328 110.12576526 38.67163086 110.13037109 C34.76414017 110.13661808 30.85671231 110.13577843 26.94921875 110.1328125 C25.76220871 110.13483673 24.57519867 110.13686096 23.35221863 110.13894653 C15.1979754 110.11660467 7.12555566 109.67630615 -1 109 C-1.13678881 106.35237664 -1.2348994 103.71200617 -1.3125 101.0625 C-1.35439453 100.32708984 -1.39628906 99.59167969 -1.43945312 98.83398438 C-1.58035174 92.38082785 0.52847587 88.3302565 4 83 C4.45818115 82.27014893 4.9163623 81.54029785 5.38842773 80.78833008 C6.86000799 78.46743925 8.36314211 76.16983867 9.875 73.875 C11.02736391 72.11459653 12.1797068 70.3541793 13.33203125 68.59375 C14.23042725 67.22476563 14.23042725 67.22476563 15.14697266 65.828125 C17.02470527 62.96229435 18.894411 60.09138265 20.76171875 57.21875 C21.3954541 56.24437988 22.02918945 55.27000977 22.68212891 54.26611328 C23.87880542 52.42619595 25.07513323 50.58605174 26.27099609 48.74560547 C32.11110523 39.78221453 38.06445685 30.90331472 44 22 C22.22 21.505 22.22 21.505 0 21 C0 14.07 0 7.14 0 0 Z " fill="#F3F7F7" transform="translate(3,3)"/>
<path d="M0 0 C3.31249276 -0.02770015 6.6249278 -0.04675797 9.9375 -0.0625 C10.88302734 -0.07087891 11.82855469 -0.07925781 12.80273438 -0.08789062 C14.15141602 -0.09272461 14.15141602 -0.09272461 15.52734375 -0.09765625 C16.77632446 -0.10551147 16.77632446 -0.10551147 18.05053711 -0.11352539 C20 0 20 0 21 1 C21.09516211 3.7388842 21.12554594 6.45247941 21.11352539 9.19165039 C21.11367142 10.05011063 21.11381744 10.90857086 21.1139679 11.79304504 C21.11326847 14.64460738 21.1054747 17.49610525 21.09765625 20.34765625 C21.09579218 22.31920842 21.09436822 24.29076105 21.09336853 26.26231384 C21.08954251 31.46226267 21.07971152 36.66218375 21.06866455 41.86212158 C21.05665806 48.09539466 21.05204859 54.32867699 21.04621124 60.56195831 C21.03649981 70.04132486 21.01734384 79.52063049 21 89 C34.2 89 47.4 89 61 89 C61 95.6 61 102.2 61 109 C48.21049812 109.85263346 35.44699806 110.16057331 22.63208008 110.23217773 C20.79105615 110.24407845 18.95005865 110.26118519 17.10913086 110.28344727 C14.4866516 110.31333642 11.86481787 110.32336403 9.2421875 110.328125 C8.44090424 110.34043152 7.63962097 110.35273804 6.8140564 110.36541748 C4.58154297 110.35644531 4.58154297 110.35644531 1 110 C-1.64314513 106.03528231 -1.27264878 102.62194558 -1.24291992 98.02148438 C-1.24481827 97.10237274 -1.24671661 96.18326111 -1.24867249 95.23629761 C-1.2523854 92.18869571 -1.24166217 89.14133086 -1.23046875 86.09375 C-1.2292763 83.97204618 -1.22882393 81.85034183 -1.2290802 79.7286377 C-1.22751403 75.2731599 -1.21921912 70.8177623 -1.20581055 66.36230469 C-1.18890324 60.67436285 -1.18499389 54.98650986 -1.18575573 49.29854584 C-1.18548246 44.91112431 -1.17997484 40.52372189 -1.17275429 36.13630676 C-1.16958858 34.04092046 -1.16760516 31.945532 -1.16686058 29.85014343 C-1.15123266 8.83747892 -1.15123266 8.83747892 0 0 Z " fill="#F4F8F9" transform="translate(204,3)"/>
<path d="M0 0 C6.93 0 13.86 0 21 0 C21.804375 1.69125 22.60875 3.3825 23.4375 5.125 C26.99157131 11.70724185 31.45643335 14.72821668 38 18 C50.68540036 18.9733225 50.68540036 18.9733225 62 14 C62.56074219 13.60296875 63.12148437 13.2059375 63.69921875 12.796875 C66.98344398 10.28400533 69.11658848 7.66218908 71 4 C73.16874252 4.50603992 74.99967627 4.99983813 77 6 C77 6.66 77 7.32 77 8 C77.66 8 78.32 8 79 8 C79 8.66 79 9.32 79 10 C79.556875 10.2475 80.11375 10.495 80.6875 10.75 C83.39971127 12.21606015 85.63587365 14.02989471 88 16 C84.4517967 26.51388663 75.0986111 31.9128247 65.71044922 36.57543945 C54.9797608 41.61729862 40.86184646 41.71589969 29.58984375 38.10546875 C17.55264669 32.96741932 8.73261634 24.70843458 3 13 C1.37324604 8.68237482 0 4.63505316 0 0 Z " fill="#F1F3F4" transform="translate(104,73)"/>
<path d="M0 0 C0.33 0 0.66 0 1 0 C1.33 8.25 1.66 16.5 2 25 C4.475 25.99 4.475 25.99 7 27 C7 27.33 7 27.66 7 28 C4.125 28.1875 4.125 28.1875 1 28 C-1.33523916 24.49714126 -1.18495942 23.34370062 -0.9765625 19.23828125 C-0.925 18.12001953 -0.8734375 17.00175781 -0.8203125 15.84960938 C-0.75585938 14.68236328 -0.69140625 13.51511719 -0.625 12.3125 C-0.56828125 11.13365234 -0.5115625 9.95480469 -0.453125 8.74023438 C-0.31155328 5.82621648 -0.16013058 2.91304743 0 0 Z " fill="#AAB4D8" transform="translate(204,85)"/>
<path d="M0 0 C0.33 0 0.66 0 1 0 C1.02685412 2.31243792 1.04632841 4.6249627 1.0625 6.9375 C1.07410156 8.22527344 1.08570313 9.51304688 1.09765625 10.83984375 C1 14 1 14 0 15 C-1.66617115 15.04063832 -3.33388095 15.042721 -5 15 C-3.625 12.5 -3.625 12.5 -2 10 C-1.34 10 -0.68 10 0 10 C0 6.7 0 3.4 0 0 Z " fill="#A3A9B0" transform="translate(199,53)"/>
<path d="M0 0 C2.01136276 2.55991624 3.62845496 5.04590299 5 8 C3.125 7.8125 3.125 7.8125 1 7 C-0.3125 4.5625 -0.3125 4.5625 -1 2 C-0.67 1.34 -0.34 0.68 0 0 Z " fill="#C1C8CD" transform="translate(126,77)"/>
<path d="M0 0 C2.97 1.65 5.94 3.3 9 5 C9 5.33 9 5.66 9 6 C6.1875 6.25 6.1875 6.25 3 6 C1.125 4.125 1.125 4.125 0 2 C0 1.34 0 0.68 0 0 Z " fill="#AEC2CB" transform="translate(133,86)"/>
<path d="M0 0 C0.66 0 1.32 0 2 0 C1.52797514 4.24822374 -0.96655518 6.19989709 -4 9 C-2.94124926 5.59687262 -1.99097846 2.98646769 0 0 Z " fill="#B9C1D4" transform="translate(81,18)"/>
<path d="M0 0 C1.75 1.3125 1.75 1.3125 3 3 C3 3.66 3 4.32 3 5 C0.97954558 4.39816251 -1.02111039 3.72693904 -3 3 C-3.33 2.34 -3.66 1.68 -4 1 C-2.1875 0.3125 -2.1875 0.3125 0 0 Z " fill="#BDC3CC" transform="translate(83,105)"/>
<path d="M0 0 C0.33 0.66 0.66 1.32 1 2 C-0.59617578 5.83082186 -1.49984971 7.66656647 -5 10 C-4.38545304 6.00544473 -2.29353263 3.25533664 0 0 Z " fill="#CED6DB" transform="translate(8,85)"/>
<path d="" fill="#000000" transform="translate(0,0)"/>
<path d="" fill="#000000" transform="translate(0,0)"/>
<path d="" fill="#000000" transform="translate(0,0)"/>
<path d="" fill="#000000" transform="translate(0,0)"/>
<path d="" fill="#000000" transform="translate(0,0)"/>
</svg>
